<svg viewBox="0 0 566.88 318.72" version="1.1" xmlns="http://www.w3.org/2000/svg" id="Layer_1">
  
  <defs>
    <style>
      .st0 {
        fill: #77758c;
      }

      .st1 {
        fill: #22122a;
      }

      .st2 {
        fill: #c2b4ad;
      }

      .st3 {
        fill: #787180;
      }

      .st4 {
        fill: #c2b5ae;
      }

      .st5 {
        fill: #cabeb8;
      }

      .st6 {
        fill: #bfb0a9;
      }

      .st7 {
        fill: #7e7680;
      }

      .st8 {
        fill: #beb0a8;
      }

      .st9 {
        fill: #7c737e;
      }

      .st10 {
        fill: #c0b2ab;
      }

      .st11 {
        fill: #7a7380;
      }

      .st12 {
        fill: #c9bdb7;
      }

      .st13 {
        fill: #817982;
      }

      .st14 {
        fill: #c6b9b3;
      }

      .st15 {
        fill: #bfb1a9;
      }

      .st16 {
        fill: #dcd4d0;
      }

      .st17 {
        fill: #d2c8c3;
      }

      .st18 {
        fill: #c1b3ac;
      }

      .st19 {
        fill: #fbfbfc;
      }

      .st20 {
        fill: #fcf5f3;
      }

      .st21 {
        fill: #a48f84;
      }

      .st22 {
        fill: #787282;
      }

      .st23 {
        fill: #807881;
      }

      .st24 {
        fill: #beafa7;
      }

      .st25 {
        fill: #fbf4f2;
      }

      .st26 {
        fill: #c0b3ab;
      }

      .st27 {
        fill: #c8bcb6;
      }

      .st28 {
        fill: #a69fac;
      }

      .st29 {
        fill: #c0b1aa;
      }

      .st30 {
        fill: #fcfcfc;
      }

      .st31 {
        fill: #bfb1aa;
      }

      .st32 {
        fill: #f1e9e6;
      }

      .st33 {
        fill: #201028;
      }

      .st34 {
        fill: #ebd5af;
      }
    </style>
  </defs>
  <path d="M254.29.48c.77-.25,1.62-.2,2.4,0,.4-.01.8,0,1.2,0l2.64.24c.32,0,.64,0,.96,0l2.16.24c.32,0,.64,0,.96,0l1.68.24c.24,0,.48,0,.72,0l1.68.24c.24,0,.48,0,.72,0l1.68.24c.16,0,.32,0,.48,0l1.44.24c.24,0,.48,0,.72,0l1.44.24c.16,0,.32-.01.48,0l1.2.24c.16.02.32-.02.48,0l1.44.24c.16,0,.32-.01.48,0l1.2.24c.16.02.32-.02.48,0,.45.18.93.26,1.44.24,1.19.16,2.4.31,3.6.48.37.17.77.25,1.2.24.15.02.33-.02.48,0,.37.17.77.25,1.2.24.15.02.33-.02.48,0,.37.17.77.25,1.2.24.64.09,1.29.15,1.92.24.37.17.77.25,1.2.24.15.02.33-.02.48,0,.37.17.77.25,1.2.24.64.1,1.29.15,1.92.24.37.17.77.25,1.2.24.15.02.33-.02.48,0,.37.17.77.25,1.2.24.15.03.33-.03.48,0l1.2.24c.65.4,1.7,2.14,2.51,2.88,2.89,2.65,6.96,4.02,10.52,5.5.25.11.11.37.16.49.17,1.27.25,2.57,0,3.84-.27,4.24-2.71,8.3-3.12,12.47l.24,1.44c.02.24-.03.49,0,.72,0,.42.07.82.24,1.2.52,3.79,1.32,7.74,2.03,11.52.76,4.04,2.08,13.21,4.01,16.38,2.27,3.73,6.83,6.37,8.05,10.87-4.47,15.98-7.55,32.32-12.07,48.29-.08.3.15.45.14.47l.28.54c-.38.31-.39.69-.04,1.14.03.45-.34.62-1.1.5-1.19,5.51-3.06,10.73-5.62,15.66-21.79,18.12-44.26,35.44-66.93,52.43.58.81-1.22,2.33-2.16,2.4-9.86,8.21-20.66,16-30.84,23.97-33.91,26.56-68.2,52.63-101.94,79.4-4.87,3.87-10.19,7.74-14.88,11.75-3.89,3.33-6.24,7.4-11.64,8.15-1.14.19-2.26.19-3.36,0-7.37-.47-26.52-8.5-33.67-12.03-3.1-1.53-6.53-2.44-9.68-4-1.43-.71-3.9-2.02-3.79-3.91.08-1.35,1.78-3.83,1.72-4.85-.03-.63-1.65-4.01-2.05-4.88-7.41-16.26-17.95-30.69-25.99-46.44-.99-1.94-1.76-2.96-1.88-5.2l-.24-3.84c0-.48,0-.96,0-1.44-.19-.48-.19-.97,0-1.44-.27-1.65-.19-3.37,0-5.04,0-.16-.01-.32,0-.48l.24-1.2c1.71-8.88,13.7-16.56,19.32-23.26L157.01,49.64c29.56-14.95,59.03-30.11,88.64-44.97,1.68-.84,7.27-4,8.64-4.19Z" class="st21"></path>
  <path d="M314.51,122.07l252.11,21.6-6.22,78.88-321.46-27.82c.37-.31,1.95-2.01,2.16-2.4.08-.33.49-.4.83-.41l315.73,27.92c2.32-24.76,4.57-49.52,6.75-74.28l-249.4-21.32-.26-.5-.96-.24c0-.58.56-.89.72-1.44Z" class="st34"></path>
  <path d="M.72,229.99c-.07.21-.15.21-.24,0-.02-1.6-.18-3.52.24-5.04-.08,1.65,0,3.37,0,5.04Z" class="st27"></path>
  <path d="M314.99,18.71c.08-1.27-.06-2.57,0-3.84.39,1.04.41,2.85,0,3.84Z" class="st8"></path>
  <path d="M.96,236.7c-.44-1.07-.24-2.62-.24-3.84.49,1.09.18,2.6.24,3.84Z" class="st18"></path>
  <path d="M79.65,318c-1.01.14-2.4.6-3.36,0,1.11.07,2.25-.05,3.36,0Z" class="st5"></path>
  <path d="M260.53.72c-.83,0-2.01.2-2.64-.24.83,0,2.01-.2,2.64.24Z" class="st31"></path>
  <path d="M256.69.48c-.76.02-1.69-.1-2.4,0,.53-.41,1.91-.4,2.4,0Z" class="st17"></path>
  <path d="M263.65.96c-.68,0-1.69.19-2.16-.24.68,0,1.69-.19,2.16.24Z" class="st18"></path>
  <path d="M271.09,1.68c-.53,0-1.35.18-1.68-.24.53,0,1.35-.18,1.68.24Z" class="st4"></path>
  <path d="M268.69,1.44c-.53,0-1.35.18-1.68-.24.53,0,1.35-.18,1.68.24Z" class="st10"></path>
  <path d="M266.29,1.2c-.53,0-1.35.18-1.68-.24.53,0,1.35-.18,1.68.24Z" class="st10"></path>
  <path d="M282.36,3.12c-.45-.03-1.17.18-1.44-.24.52.07,1.02.18,1.44.24Z" class="st4"></path>
  <path d="M278.76,2.64c-.45,0-1.18.17-1.44-.24.44.05,1.17-.2,1.44.24Z" class="st29"></path>
  <path d="M275.16,2.16c-.45,0-1.18.17-1.44-.24.45,0,1.18-.16,1.44.24Z" class="st26"></path>
  <path d="M273,1.92c-.45,0-1.18.16-1.44-.24.45,0,1.18-.16,1.44.24Z" class="st18"></path>
  <path d="M.72,231.43c-.4-.26-.23-.99-.24-1.44h.24c0,.48,0,.96,0,1.44Z" class="st16"></path>
  <path d="M312.11,32.62c-.37-.23-.28-1.02-.24-1.44.43.27.19.99.24,1.44Z" class="st12"></path>
  <path d="M287.16,3.84c-.38-.01-.99.15-1.2-.24.46.07.94.2,1.2.24Z" class="st15"></path>
  <path d="M280.44,2.88c-.38-.01-.99.15-1.2-.24.55.04.96.21,1.2.24Z" class="st10"></path>
  <path d="M276.84,2.4c-.38-.01-.99.15-1.2-.24.53.04,1.02.22,1.2.24Z" class="st24"></path>
  <path d="M288.84,4.08c-.38-.01-.99.15-1.2-.24.46.07.94.2,1.2.24Z" class="st18"></path>
  <path d="M300.11,5.76c-.38-.01-.99.15-1.2-.24.45.07.84.17,1.2.24Z" class="st2"></path>
  <path d="M290.52,4.32c-.38-.01-.99.15-1.2-.24.46.07.88.19,1.2.24Z" class="st2"></path>
  <path d="M.72,224.47c.04-.61.16-.77.24-1.2-.01.38.15.99-.24,1.2Z" class="st6"></path>
  <path d="M293.64,4.8c-.38-.01-.99.15-1.2-.24.46.07.92.2,1.2.24Z" class="st10"></path>
  <path d="M295.31,5.04c-.38-.01-.99.15-1.2-.24.45.07.87.19,1.2.24Z" class="st2"></path>
  <path d="M312.35,34.53c-.39-.2-.23-.81-.24-1.2.03.21.18.76.24,1.2Z" class="st18"></path>
  <path d="M298.43,5.52c-.38-.01-.99.15-1.2-.24.46.07.91.2,1.2.24Z" class="st10"></path>
  <path d="M301.79,6c-.38-.01-.99.15-1.2-.24.46.09.59-.14,1.2.24Z" class="st14"></path>
  <path d="M314.75,123.75l249.82,21.38.29.19.11.6c-2.55,24.44-4.34,48.95-6.73,73.4-.04.36-.11.72-.28,1.04l-316.87-28.03s-.26-.13-.22-.2c22.4-17.34,45.08-34.35,66.8-52.55,2.9-4.73,3.99-10.55,5.65-15.81l1.42-.02Z" class="st33"></path>
  <path d="M257.17,4.32c.44-.23.99-.2,1.44,0,3-.05,6.42.43,9.45.75,7.08.75,14.55,1.74,21.58,2.89,1.14.19,6.34.73,6.6,1.81.1.39-1.81,5.77-2.12,6.67-4.2,12.32-9.07,24.77-14.05,36.8-2.05,4.95-3.48,10.83-8.19,13.87L38.26,233.74c-10.6-4.37-21.77-7.33-32.03-12.51L159.17,53.72l1.55-1.32L256.29,4.5c.28-.17.58-.15.88-.19Z" class="st20"></path>
  <path d="M69.61,306.21l-19.83-55.36,234.27-165.84,14.41,48.46-223.55,173.2c-1.76.16-3.55-.3-5.3-.46Z" class="st20"></path>
  <path d="M280.44,62.59c.27,1.11,3.99,5.19,3.82,5.83L42.1,243.64c-.48-.96-4.1-5.17-3.93-5.82L280.44,62.59Z" class="st20"></path>
  <path d="M286.6,69.82c.31-.05.38.16.56.33.26.24,2.72,3.71,2.78,3.95.1.37-.43.62-.65.83L47.49,249.53l-.56.11c-.46-.58-3.36-4.22-3.16-4.55l242.83-175.27Z" class="st25"></path>
  <path d="M303.95,138.38c.31.43.31.65-.24.72-.56.91-1.54,1.44-2.29,2.15l-221.77,172.57c-.2.19-.29.14-.49,0-.27-.18-3.13-4.03-3.08-4.29l224.85-174.97c1.06,1.21,2.04,2.54,3.02,3.83Z" class="st20"></path>
  <path d="M286.85,63.72l-1.85,1.03c.33-2.9-3.36-4.16-2.83-7.02,5.92-15.38,11.29-30.98,17.2-46.37.09-.24-.13-.44.35-.31.79.21,4.21,2.98,4.71,3.69s.55.98.43,1.86c-.39,2.76-2.34,7.55-3.37,10.31-4.6,12.37-11.1,24.03-14.64,36.8Z" class="st20"></path>
  <path d="M322.18,72.19c.19.6.19,1.16,0,1.68-.13,4.22-2.84,10.27-4.01,14.58-3.1,11.45-5.11,23.19-8.64,34.53-.37,1.18-2.76,8.75-3.32,8.92-1.14-.04-1.51-1.82-1.91-2.74,2.32-12.52,6.75-24.5,9.85-36.82,1.57-6.25,2.52-13.33,4.61-19.37.31-.88.54-2.28,1.55-2.54,1.35-.35,1.65.83,1.87,1.76Z" class="st20"></path>
  <path d="M291.47,70.27c-.21.21-2.66-2.18-2.85-2.55-.96-1.87.91-3.34,1.69-4.96,4.15-8.55,7.25-19.89,10.81-29,1.74-4.44,3.48-8.94,5.41-13.29.51-1.16,1.06-2.52,1.66-3.61.15-.27-.1-.32.37-.27.36.04,1.6.48,1.51.94l-18.62,52.75Z" class="st20"></path>
  <path d="M34.31,297.86c.05-.06,1.42-.45,1.58-.47,1.92-.27,9.84,3.01,12.16,3.88,4.31,1.62,8.64,3.34,12.89,5.1,2.54,1.06,11.57,4.45,12.85,6.33.64.94.49,1.52-.7,1.44-4.19-.3-13.86-4.2-18.21-5.8-4.6-1.69-15.34-5.28-18.77-8.1-.39-.32-2.19-1.95-1.8-2.39Z" class="st25"></path>
  <path d="M41.5,247.73c-10.27-1.65-19.96-5.54-29.8-8.69-1.91-.61-5.53-1.24-7.08-2.02-1.02-.51-3.65-6.14-.05-5.01,8.89,3.07,17.63,6.59,26.5,9.73,3.9,1.38,8.69,1.59,10.44,5.99Z" class="st25"></path>
  <path d="M36.88,236.52c.48,1.08,1.33,2.32.75,3.51-.62.39-4.19-1.55-5.12-1.89-7.83-2.9-16.51-4.23-24.11-7.56-1.13-.49-4.86-2.16-5.19-3.22-.66-2.13,2.13-1.36,3.26-1.09,10.4,2.48,20,7.76,30.41,10.25Z" class="st32"></path>
  <path d="M303.95,138.38c.37.48,1.02.46-.12.95l-.12-.23c.14-.22.21-.46.24-.72Z" class="st22"></path>
  <path d="M322.18,73.86c.02-.56-.01-1.12,0-1.68.11.46.62,1.18,0,1.68Z" class="st23"></path>
  <path d="M258.61,4.32c-.46,0-1-.05-1.44,0,.23-.39,1.2-.39,1.44,0Z" class="st13"></path>
  <path d="M429.18,189.22c2.75-8.16,2.72-16.8,3.36-25.3.14-1.83.8-4.56.74-6.24-.05-1.51-3.2-4.6-4.1-5.99l.36-.37,9.71.73-.72,15.59c5.58.29,13.97-5.17,12.94-11.38-.29-1.73-1.94-1.03-2.38-2.53l10.07.72c-1.91,4.97-5.26,10.89-10,13.62-.39.22-3.57,1.54-3.43,1.72,7.25,2.88,8.2,16.34,15.77,18.17,1.29.31,2.98-.06,3.9,1.14-4.4.86-7.97,5.14-11.75.71-5.45-6.38-4.85-18.42-15.48-19.78-.77,6.56-2.82,13.42-.6,19.91-.1.1-1.89-.72-2.28-.72h-6.12Z" class="st30"></path>
  <path d="M394.39,185.38h-4.92c-.49,0-2.6-.47-3.19-.65-1.63-.48-1.72-.99-2.28-2.52-1.27-3.51-1.81-7.93-3.34-11.29-.6-1.32-1.01-1.25-2.44-1.11-3.76.38-14.6,6.49-16.82,9.56-.56.78-.87,2.67-1.23,2.9-1.35.86-4.95-.8-6.56-.74-.06-.45.28-.73.48-1.08,5.37-9.29,12.71-18.08,18.21-27.37,1.39-3.19-.62-4.32-2.61-6.33,2.62.24,6.56-1.05,8.63,1.08,1.23,1.26,2.72,5.83,3.37,7.67,3.57,10.15,5.09,21.81,12.71,29.86Z" class="st30"></path>
  <path d="M355.77,145.09l-2.52,3.59-1.44,4.08c-7.37-8.85-26.32-8.4-29.47,4.12-2.87,11.42,3.78,23.05,16.64,20.47,4.83-.97,8.17-3.93,11.51-7.32.24,6.76-1.8,9.8-8.54,10.76-13.82,1.98-28.14-4.06-27.2-19.99,1.21-20.48,26.69-17.96,41.02-15.71Z" class="st30"></path>
  <path d="M420.23,161.33c-.31.26-.73.33-1.13.31.07-5.86-5.62-8.61-10.85-7.85s-7.62,7.04-2.9,10.2c6.24,4.18,18.6,3.66,17.82,14.07-.86,11.46-18.01,9.82-25.55,6.84-2.11-.83-2.73-.49-2.1-2.83s2.41-4.37,1.98-7.01c.55-.14.4.11.55.3,2.72,3.48,2.95,6.64,7.79,8.26s13.5.99,11.28-6c-2.54-7.97-22.83-4.72-19.79-17.97,1.92-8.34,12.1-10.03,19.22-8.33,1.4.33,6.35,1.54,6.39,3.21.02.88-2.05,6.2-2.72,6.77Z" class="st30"></path>
  <path d="M494.67,163.8c-4.95-1.96-9.62-5.93-15.25-4.57l-.82,11.53c4.04.04,8.34-.07,12.35.48.37.05,1.63.22,1.81.35,1.48,1.04-3.21,5.88-4.68,5.9-1.75.03-6.95-6.01-9.57-4.12-1.08.78-1.54,13.38-1.35,15.25.13,1.3.39,2.05,1.81,2.27,4.41.68,9.07-1.76,13.3-2.62-.73,1.22.44,4.96-.23,5.64-.52.53-2.89.39-3.72.35-4.87-.2-9.78-1.24-14.64-1.68-2.03-.18-4.08-.28-6.12-.24-.04-2.33,2.61-2.16,3.25-4.3.68-2.28.96-6.51,1.28-9.04.46-3.74.92-7.73,1.23-11.48.17-2.03.76-6.27.01-7.92-.59-1.3-2.25-2.2-2.17-3.71l24,1.79c2.08.68-1.22,4.56-.49,6.13Z" class="st30"></path>
  <path d="M537.85,161.4c-1.93,2.47-5.6,3.97-5.28,7.67-1.14-.78-1.94-2.02-3-2.87-2.73-2.19-5.8-2.86-9.23-2.4-.35,11.05-3.45,22.03-1.68,33.1l-8.4-.72c1.84-3.8,2.37-7.98,2.85-12.14.56-4.85,1.5-13.24.92-17.89-.54-4.3-4.92-4.29-8.46-4.03-3.24.24-5.37,2.16-8.51,2.41,2.01-3.43,5.4-6.49,5.28-10.79,1.29.18,1.35,1.69,1.87,2.57.94,1.59,2.73,1.96,4.3,2.65l29.33,2.46Z" class="st19"></path>
  <path d="M175.85,63.55c2.09.09,4.01.46,5.92,1.39,1.67.82,2.55,2.23,4.16,3.05,3.01-6.84,4.08-13.73,8.2-20.11,1.14-1.76,2.12-3.38,3.21-5.18,4.34-7.14,17.48-12.38,25.59-10.99.78.13,1.24.66,1.81.83.82.25,5.81,1.49,6.01,1.79.18.27-.02,1.44.42,1.86.74.44,3.68,4.65,4.04,4.57s4.89-4.71,5.3-5.26c1.66-2.19-4.15-.37-4.46-2.54-.34-2.46,3.85-2.18,5.34-1.96,2.9.42,6.36,3.28,8.84,4.83.53.33,2.97,1.47,3.06,1.62.1.16.1.8.05,1-.25,1.02-5.3-.29-6.24.29-3.2,2.63-6.53,5.11-9.36,8.14,1.41,1.48,4.34,4.23,4.5,6.3.23,2.99-4.51,3.02-2.11,6.4,1.52,2.14,5.32,3.55,7.87,4.13,3.44.78,3.82-.49,6.67-.86,3.05-.4.71,1.24-.46,1.93-1.68.99-4.1,1.72-6.04,1.87-3.5.29-8.94-.79-12.4-1.74-2.83-.78-5.75-2.85-7.62-5.09-.82-.98-1.13-2.81-2.71-2.47-.98.21-6.71,5.14-6.85,5.87,1.95,3.9,4.08,5.51,4.28,10.16.22.54.22,1.14,0,1.68-.53,10.31-14.38,20.41-24.1,21.11-3.26.24-7.44.1-10.51-1.03-.92-.34-2.39-1.44-3.31-1.28-1.28.22-4.9,3.93-5.27,5.18-.51.42-.99.87-1.45,1.33l3.3,3.04c1.5,1.35.55,3.55-1.37,2.82-2.78-1.92-7.2-6.42-10.02-7.37-1.68-.56-3.9-.27-5.05-1.86,1.04-1.73,2.63-2.91,4.68-2.09.79.31,2.25,1.6,3.01,1.45.47-.1,5.85-4.39,6.3-4.99,1.42-1.89-.57-2.73-.08-4.39.31-1.04,3.4-2.31,4.28-3.16,2.26-2.18,1.81-5.96,2.63-8.76-.76-.7-4.82,4.23-5.68,4.76-.64.4-1.34.42-1.89.75-4.4,2.6-6.14,4.74-11.82,3.45-7.6-1.73-8.57-6.52-4.7-12.77,2.74-4.43,6.53-7.45,11.86-7.93l2.16.24Z" class="st21"></path>
  <path d="M179.68,99.05c-.8,2.7,1.25,2.73,2.5,4.57.44.65.45.96.62,1.66.17.65.17,1.29,0,1.92-.65,1.09-1.89-.44-2.64-.96,4.97-1.44-2.4-4.54-2.41-5.88,0-.43,1.36-1.75,1.93-1.32Z" class="st28"></path>
  <path d="M175.85,63.55c-.69-.03-1.68.21-2.16-.24.61-.06,1.73-.15,2.16.24Z" class="st9"></path>
  <path d="M182.8,107.2v-1.92c.18.77.54,1.01,0,1.92Z" class="st0"></path>
  <path d="M222.87,75.06c.03-.54.02-1.13,0-1.68.4.3.4,1.38,0,1.68Z" class="st3"></path>
  <path d="M108.35,243.98c-1.16-1.1-3.6-.49-5.05-1.07-3.97-1.58-2.03-11.37,2.85-11.27,2.84.06,5.35,4.03,6.4,6.33,1.46,3.19,2.91,12.18,7.28,12.17,2.47,0,2.62-1.5,3.95-2.79,3.97-3.84,8.83-6.71,13.19-10.08,1.44-1.12,5.72-4.26,6.15-5.85.35-1.28-1.14-4.84-1.69-6.24-1.46-3.7-5.26-9.53-4.92-13.32.42-4.72,5.54-5.77,7.9-1.16,1.48,2.9,6.11,16.32,6.17,19.2.03,1.37-.55,2.95-.85,4.29-5.41,5.29-12.09,9.33-17.88,14.26-2.71,2.3-10.54,10.49-13.5,10.97-1.6.26-2.2-.37-3.17-1.51-2.65-3.09-3.74-7.9-5.48-11.55-.29-.61-.89-1.98-1.32-2.39Z" class="st21"></path>
  <path d="M250.93,154.68c.22.78.23,1.62,0,2.4-.13,2.28-.32,2.04-1.92,3.48-7.03,6.36-15.46,13.43-22.92,19.3-1.52,1.19-5.49,4.41-7.25,4.51-2.34.13-4.28-3.97-5.14-5.78-1.12-2.36-2.99-8.66-4.91-9.96-2.73-1.84-5.5.84-5.84-4.12-.23-.61-.22-1.3,0-1.92.37-8.32,6.81-6.35,9.88-.88,1.67,2.98,3.89,12.95,7.14,13.96,2.36.73,2.39-.59,3.73-1.82,5.44-5,11.91-8.86,17.51-13.67,1.56-1.34,3.47-2.33,3.18-4.61-.3-2.45-3.11-10.23-4.37-12.42-.85-1.48-2.38-2.32-2.53-4.19-.22-2.67,1.42-5.43,4.28-5.58,2.3-.12,2.85,1.15,3.69,2.9,2.18,4.56,5.32,13.47,5.48,18.39Z" class="st21"></path>
  <path d="M250.93,157.08c.04-.77.02-1.63,0-2.4.4.48.41,1.87,0,2.4Z" class="st7"></path>
  <path d="M202.95,164.52c-.4-.38-.4-1.55,0-1.92-.03.6-.04,1.32,0,1.92Z" class="st7"></path>
  <path d="M379.04,167.63l-13.91,3.84,8.38-14.46c.25-.38,1.05-.5,1.46-.29.84.43,3.02,9.53,4.08,10.92Z" class="st1"></path>
  <path d="M229.29,46.46c-.51.5-6.16,2.01-7.02,2-1.65,0-3.09-2.2-4.56-2.2-1.93,0-.79,2.4.24,3.14,1.79,1.29,6.5.04,3.25,3.49-.97,1.02-5.9,5.33-6.96,5.75-4.47,1.77-9.56-5.08-7.65-9.33.92-2.05,6.36-6.85,8.54-7.29,2.51-.51,12.02.98,13.87,2.81.37.37.71,1.22.29,1.63Z" class="st20"></path>
  <path d="M169.85,81.06c-.61.24-1.3.2-1.92,0-8.93-.72-2.77-10.01,1.36-12.91,3.18-2.23,6.16-2.63,9.91-1.6,4.47,1.23,5.54,4.49,2.64,8.15-2.72,3.42-7.63,6.1-11.99,6.36Z" class="st20"></path>
  <path d="M208.47,80.82c-.49,6.71-8.15,11.99-14.51,11.99h-3.96c2.3-6.1,7.15-11.93,12.26-15.92,1.26-.98,3.72-3.01,5.35-2.56.34.09.82,3.48.87,4.09.23.78.23,1.62,0,2.4Z" class="st20"></path>
  <path d="M201.51,71.22c-.05.05-.87.05-1.42.38-1.6.97-4.71,6.11-6.5,5.77-.74-.14-1.41-3.41-2.04-4.44-.97-1.58-3.4-2.96-3.21-4.91.21-2.1,2.8-4.41,3.63-6.46.92-2.27,1.33-4.75,2.32-7.27,2.66-6.75,4.35-9.16,11.46-11.81.71-.26,1.79-.28.93.45-.47.4-1.27.58-1.88,1-7.35,4.96-11.81,10.29-7.16,19.3.38.73,1.03,1.29,1.36,2,.61,1.29.43,3.45,1.32,4.2.28.23.91.32,1.08.6.14.22.2,1.1.11,1.2Z" class="st20"></path>
  <path d="M225.47,35.04c.08.08.05.76.21,1.1.92,1.92,5.49,1.7,5.1,4.86-.44.44-7.72-1.99-9.02-2.13-3.26-.36-5.82.51-8.85.69-2.44.15-3.63-.65-5.87-1.2l2.88-1.55c1.91-1.31,14.62-2.75,15.56-1.77Z" class="st20"></path>
  <path d="M208.47,80.82c.05-.72.05-1.68,0-2.4.4.64.4,1.77,0,2.4Z" class="st11"></path>
  <path d="M169.85,81.06c-.43.44-1.46.35-1.92,0,.58.05,1.33.04,1.92,0Z" class="st9"></path>
</svg>